<?xml version="1.0" encoding="utf-8"?>
<!-- Generator: Adobe Illustrator 21.0.1, SVG Export Plug-In . SVG Version: 6.00 Build 0)  -->
<svg version="1.1" id="Layer_1" xmlns="http://www.w3.org/2000/svg" xmlns:xlink="http://www.w3.org/1999/xlink" x="0px" y="0px"
	 viewBox="0 0 50 50" style="enable-background:new 0 0 50 50;" xml:space="preserve">
<style type="text/css">
	.st0{fill:#060606;}
</style>
<title>logo</title>
<desc>Created with Sketch.</desc>
<g id="assets">
	<g id="logo_1_">
		<g id="logo-_x2F_-black">
			<g id="logo">
				<path id="Fill-1" class="st0" d="M48.7,49.1H33.5c7.2-3,12.1-7.7,15.1-14.3V49.1z M48.4,28.2c-0.8,12-12.3,20.6-20.7,20.5
					C34.6,42,41.5,35.1,48.4,28.2L48.4,28.2z M18.1,42.1c4.3,1.6,8.7,1.8,13.2,0.2c-2.3,2.3-4.4,4.4-6.5,6.5
					C22.6,46.6,20.4,44.4,18.1,42.1L18.1,42.1z M1.7,28.7c6.7,6.7,13.5,13.4,20.2,20C12.5,48.4,2.3,39,1.7,28.7L1.7,28.7z M1.4,49.1
					V34.8c3,6.6,7.8,11.3,14.5,14.3H1.4z M1.4,2.1h14.5C9.3,5.1,4.4,9.8,1.4,16.4V2.1z M8.2,32.6c-1.1-1.1-2.2-2.1-3.3-3.2
					c-1.2-1.1-2.3-2.2-3.5-3.2c2.3-2.3,4.5-4.3,6.7-6.4C6.6,23.9,6.7,28.1,8.2,32.6L8.2,32.6z M1.7,23C1.9,12.8,12.1,2.7,22.3,2.5
					C15.5,9.3,8.5,16.2,1.7,23L1.7,23z M30.3,8.6c-3.7-1-7.6-1.1-11.7,0.5c2.3-2.3,4.2-4.2,6.1-6.1C26.5,4.8,28.4,6.7,30.3,8.6
					L30.3,8.6z M41.5,25.5c0.2,8.9-7.3,16.4-16.3,16.6c-9,0.1-16.6-7.1-16.7-15.9c-0.2-9.3,7-16.7,16.3-16.9
					C33.9,9,41.4,16.3,41.5,25.5L41.5,25.5z M42,19.9c2.2,2.2,4.1,4.1,5.9,6c-1.9,1.9-3.9,3.8-6,6C43.1,27.9,43.3,24.1,42,19.9
					L42,19.9z M48.5,23.5c-7.1-7.1-14.2-14.2-21-21.1C36.8,2.3,48,11.8,48.5,23.5L48.5,23.5z M48.6,2.1v14.4
					c-3-6.5-7.8-11.3-14.4-14.4H48.6z M0,50.5h50V0.7H0V50.5z"/>
				<path id="Fill-4" class="st0" d="M20.5,25.7c0,2.4,2,4.3,4.5,4.4c2.5,0,4.5-1.8,4.5-4.3c0.1-2.5-1.9-4.6-4.5-4.6
					C22.5,21.2,20.5,23.2,20.5,25.7"/>
			</g>
		</g>
	</g>
</g>
</svg>
