<svg width="96" height="96" viewBox="0 0 96 96" xmlns="http://www.w3.org/2000/svg"><title>logo</title><g fill="#060606" fill-rule="evenodd"><path d="M93.348 92.85h-29.04c13.837-5.712 23.158-14.737 29.04-27.483V92.85zm-.428-40.108c-1.455 23.023-23.568 39.607-39.737 39.362C66.32 79.09 79.646 65.889 92.92 52.742zM34.682 79.359c8.339 3.104 16.665 3.445 25.277.455L47.52 92.346 34.682 79.359zM3.245 53.694l38.759 38.408c-18.08-.63-37.557-18.588-38.76-38.408zM2.73 92.825V65.416c5.787 12.59 14.954 21.694 27.735 27.41H2.73zM2.663 2.68h27.774C17.857 8.426 8.525 17.452 2.663 30.112V2.68zM15.71 61.096c-2.11-2.037-4.208-4.086-6.334-6.106-2.222-2.11-4.472-4.194-6.644-6.227 4.5-4.321 8.642-8.301 12.822-12.316-2.825 7.958-2.646 16.156.156 24.649zM3.199 42.794c.522-19.73 20.096-38.997 39.66-39.48L3.2 42.794zM58.14 15.05c-7.12-1.878-14.507-2.025-22.532.893l11.73-11.791c3.59 3.62 7.229 7.293 10.802 10.898zm21.55 32.472c.316 17.048-13.933 31.516-31.276 31.759-17.183.24-31.825-13.7-32.107-30.566-.296-17.773 13.502-32.092 31.247-32.425 17.403-.327 31.813 13.677 32.137 31.232zm.877-10.7l11.294 11.44L80.32 59.7c2.382-7.486 2.736-14.78.247-22.877zm12.41 6.832L52.589 3.252c18.035-.147 39.526 17.92 40.388 40.4zm.284-41.086v27.552c-5.795-12.52-14.913-21.642-27.58-27.552h27.58zM0 95.527h95.935V0H0v95.526z"/><path d="M39.376 47.877c.027 4.674 3.753 8.324 8.542 8.366 4.784.043 8.555-3.518 8.702-8.215.149-4.767-3.72-8.737-8.553-8.777-4.847-.04-8.719 3.803-8.691 8.626"/></g></svg>