<svg xmlns="http://www.w3.org/2000/svg" viewBox="0 0 32 32"><path style="text-indent:0;text-align:start;line-height:normal;text-transform:none;block-progression:tb;-inkscape-font-specification:Bitstream Vera Sans" d="M16 3c-4.959 0-9 4.041-9 9 0 1.406.57 3.02 1.344 4.781.774 1.762 1.77 3.631 2.781 5.375a101.39 101.39 0 0 0 4.063 6.407L16 29.75l.813-1.188s2.039-2.918 4.062-6.406c1.012-1.744 2.007-3.613 2.781-5.375C24.43 15.02 25 13.406 25 12c0-4.959-4.041-9-9-9zm0 2c3.877 0 7 3.123 7 7 0 .803-.43 2.316-1.156 3.969-.726 1.652-1.73 3.483-2.719 5.187-1.572 2.71-2.546 4.144-3.125 5-.579-.856-1.553-2.29-3.125-5-.988-1.704-1.993-3.535-2.719-5.187C9.43 14.316 9 12.803 9 12c0-3.877 3.123-7 7-7zm0 5a2 2 0 1 0 0 4 2 2 0 0 0 0-4z" overflow="visible" font-family="Bitstream Vera Sans"/></svg>