<svg xmlns="http://www.w3.org/2000/svg" viewBox="0 0 32 32"><path style="text-indent:0;text-align:start;line-height:normal;text-transform:none;block-progression:tb;-inkscape-font-specification:Sans" d="M16 3c-3.801 0-6.236.624-7.813 1.625-1.576 1-2.218 2.457-2.218 3.656 0 1.226.318 2.394.812 3.813A2.918 2.918 0 0 0 6 12c-.682 0-1.344.232-1.875.656a3.022 3.022 0 0 0-.469 4.219L6.97 21a5.342 5.342 0 0 0 4.156 2h9.75c1.627 0 3.17-.729 4.188-2l3.28-4.125a3.021 3.021 0 0 0-.468-4.219A3.002 3.002 0 0 0 26 12c-.27 0-.526.024-.781.094.494-1.419.812-2.587.812-3.813 0-1.2-.642-2.655-2.218-3.656C22.236 3.625 19.8 3 16 3zm0 2c3.576 0 5.66.62 6.75 1.313 1.09.691 1.281 1.382 1.281 1.968 0 1.574-.764 3.318-2.125 7.031L20.563 17h-9.126l-1.343-1.688c-1.348-3.677-2.125-5.464-2.125-7.03 0-.587.192-1.278 1.281-1.97C10.34 5.622 12.424 5 16 5zM6 14c.312 0 .585.13.781.375l3.282 4.125h.03c.247.304.636.5 1.032.5h9.75c.396 0 .815-.19 1.063-.5l1.718-2.156 1.563-1.969A.975.975 0 0 1 26 14c.223 0 .45.079.625.219.437.35.504.97.156 1.406L23.5 19.75A3.325 3.325 0 0 1 20.875 21h-9.75A3.323 3.323 0 0 1 8.5 19.75l-3.281-4.125a.99.99 0 0 1 .156-1.406A1.02 1.02 0 0 1 6 14zm9 10v3h-4v2h10v-2h-4v-3h-2z" overflow="visible" font-family="Sans"/></svg>